<svg xmlns="http://www.w3.org/2000/svg" viewBox="0 0 512 512">
  <rect width="512" height="512" rx="100" fill="#00b4d8"/>
  <path d="M256 128c-35.3 0-64 28.7-64 64 0 23.6 12.8 44.1 32 55.3V256h64v-8.7c19.2-11.2 32-31.7 32-55.3 0-35.3-28.7-64-64-64zm-64 192c-17.7 0-32 14.3-32 32s14.3 32 32 32 32-14.3 32-32-14.3-32-32-32zm128 0c-17.7 0-32 14.3-32 32s14.3 32 32 32 32-14.3 32-32-14.3-32-32-32zm-64 64c-17.7 0-32 14.3-32 32s14.3 32 32 32 32-14.3 32-32-14.3-32-32-32z" fill="white"/>
  <path d="M256 100c-86.2 0-156 69.8-156 156s69.8 156 156 156 156-69.8 156-156-69.8-156-156-156zm0 280c-68.4 0-124-55.6-124-124s55.6-124 124-124 124 55.6 124 124-55.6 124-124 124z" fill="white" opacity="0.2"/>
</svg>
